<?xml version="1.0" encoding="UTF-8"?>
<svg width="1225px" height="637px" viewBox="0 0 1225 637" version="1.1" xmlns="http://www.w3.org/2000/svg" xmlns:xlink="http://www.w3.org/1999/xlink" style="background: #FFFFFF;">
    <!-- Generator: Sketch 49.3 (51167) - http://www.bohemiancoding.com/sketch -->
    <title>Desktop HD</title>
    <desc>Created with Sketch.</desc>
    <defs>
        <polygon id="path-1" points="0 0 20.1295448 0 20.1295448 15.6995305 0 15.6995305"></polygon>
    </defs>
    <g id="Desktop-HD" stroke="none" stroke-width="1" fill="none" fill-rule="evenodd">
        <g id="deerupt-runner-parley-shoes" transform="translate(111.000000, 143.000000)">
            <g id="Group-2" transform="translate(57.557917, 90.892019)">
                <g id="baseline-star-24px">
                    <polygon id="Shape" points="0 0 20.1295448 0 20.1295448 15.6995305 0 15.6995305"></polygon>
                    <polygon id="Shape" fill="#000000" fill-rule="nonzero" points="10.0647724 11.2971205 15.2481302 13.7370892 13.8726113 9.13843505 18.4520827 6.04431925 12.4216066 5.64528951 10.0647724 1.30829421 7.70793819 5.64528951 1.67746207 6.04431925 6.2569335 9.13843505 4.88141461 13.7370892"></polygon>
                    <polygon id="Shape" points="0 0 20.1295448 0 20.1295448 15.6995305 0 15.6995305"></polygon>
                </g>
                <g id="baseline-star-24px" transform="translate(20.968276, 0.000000)">
                    <polygon id="Shape" points="0 0 20.1295448 0 20.1295448 15.6995305 0 15.6995305"></polygon>
                    <polygon id="Shape" fill="#000000" fill-rule="nonzero" points="10.0647724 11.2971205 15.2481302 13.7370892 13.8726113 9.13843505 18.4520827 6.04431925 12.4216066 5.64528951 10.0647724 1.30829421 7.70793819 5.64528951 1.67746207 6.04431925 6.2569335 9.13843505 4.88141461 13.7370892"></polygon>
                    <polygon id="Shape" points="0 0 20.1295448 0 20.1295448 15.6995305 0 15.6995305"></polygon>
                </g>
                <g id="baseline-star-24px" transform="translate(41.097821, 0.000000)">
                    <polygon id="Shape" points="0 0 20.1295448 0 20.1295448 15.6995305 0 15.6995305"></polygon>
                    <polygon id="Shape" fill="#000000" fill-rule="nonzero" points="10.0647724 11.2971205 15.2481302 13.7370892 13.8726113 9.13843505 18.4520827 6.04431925 12.4216066 5.64528951 10.0647724 1.30829421 7.70793819 5.64528951 1.67746207 6.04431925 6.2569335 9.13843505 4.88141461 13.7370892"></polygon>
                    <polygon id="Shape" points="0 0 20.1295448 0 20.1295448 15.6995305 0 15.6995305"></polygon>
                </g>
                <g id="baseline-star-24px" transform="translate(62.066096, 0.000000)">
                    <polygon id="Shape" points="0 0 20.1295448 0 20.1295448 15.6995305 0 15.6995305"></polygon>
                    <polygon id="Shape" fill="#000000" fill-rule="nonzero" points="10.0647724 11.2971205 15.2481302 13.7370892 13.8726113 9.13843505 18.4520827 6.04431925 12.4216066 5.64528951 10.0647724 1.30829421 7.70793819 5.64528951 1.67746207 6.04431925 6.2569335 9.13843505 4.88141461 13.7370892"></polygon>
                    <polygon id="Shape" points="0 0 20.1295448 0 20.1295448 15.6995305 0 15.6995305"></polygon>
                </g>
                <g id="baseline-star_half-24px" transform="translate(82.195641, 0.000000)">
                    <mask id="mask-2" fill="white">
                        <use xlink:href="#path-1"></use>
                    </mask>
                    <g id="a"></g>
                    <path d="M18.4520827,6.04431925 L12.4216066,5.63874804 L10.0647724,1.30829421 L7.70793819,5.64528951 L1.67746207,6.04431925 L6.2569335,9.13843505 L4.88141461,13.7370892 L10.0647724,11.2971205 L15.2481302,13.7370892 L13.8809986,9.13843505 L18.4520827,6.04431925 Z M10.1189071,10.2451102 L10.1189071,4.44776924 L11.7636886,6.55099183 L15.1726444,6.88162754 L12.3880574,8.76557121 L13.2267884,11.5653208 L10.1189071,10.2451102 Z" id="Shape" fill="#000000" fill-rule="nonzero" mask="url(#mask-2)"></path>
                </g>
            </g>
            <text id="4.6-from-10-reviews" font-family="Raleway-Regular, Raleway" font-size="20" font-weight="normal" letter-spacing="0.274285674" fill="#4A4A4A">
                <tspan x="217.758675" y="105.328638">4.6 from 10 reviews</tspan>
            </text>
            <rect id="Rectangle" stroke="#979797" x="0.5" y="0.5" width="1002" height="351"></rect>
            <text id="+-EVA-midsole-for-lo" font-family="Raleway-Regular, Raleway" font-size="30" font-weight="normal" line-spacing="37" letter-spacing="0.411428571" fill="#4A4A4A">
                <tspan x="38.3719447" y="160.859155">+ EVA midsole for long-term, lightweight</tspan>
                <tspan x="38.3719447" y="197.859155">	cushioning</tspan>
                <tspan x="221.32623" y="197.859155" letter-spacing="0.352653056"></tspan>
                <tspan x="38.3719447" y="234.859155" letter-spacing="0.352653056">+ Inspired by a legendary basketball shoe </tspan>
                <tspan x="38.3719447" y="271.859155" letter-spacing="0.352653056">+ Adaptive support and ultralight comfort</tspan>
                <tspan x="38.3719447" y="308.859155" letter-spacing="0.352653056">+ Stretchweb outsole for reliable traction</tspan>
            </text>
            <text id="CRAZY-8-ADV-SHOES" font-family="Raleway-Bold, Raleway" font-size="35" font-weight="bold" letter-spacing="0.480000079" fill="#4A4A4A">
                <tspan x="57.5579171" y="57.5328638">CRAZY 8 ADV SHOES</tspan>
            </text>
            <text id="GREY-FOUR/OFF-WHITE" font-family="Raleway-Regular, Raleway" font-size="30" font-weight="normal" letter-spacing="0.411428571">
                <tspan x="57.5579171" y="86.1056338" fill="#4A4A4A">GREY FOUR/</tspan>
                <tspan x="246.592203" y="86.1056338" letter-spacing="0.352653056" fill="#9B9B9B" fill-opacity="0.8">OFF WHITE</tspan>
            </text>
            <text id="£109.95" font-family="Raleway-Regular, Raleway" font-size="35" font-weight="normal" letter-spacing="0.48" fill="#4A4A4A">
                <tspan x="832.458023" y="57.5328638">£109.95</tspan>
            </text>
            <g id="Group-5" transform="translate(790.888417, 132.206573)" fill="#4A4A4A" font-family="Raleway-Bold, Raleway" font-size="22" font-weight="bold" letter-spacing="0.301714271">
                <text id="ADIDAS-PRIMEKNIT">
                    <tspan x="45.968357" y="21">ADIDAS </tspan>
                    <tspan x="26.3977856" y="47">PRIMEKNIT</tspan>
                </text>
                <text id="ADIDAS-ORIGINAL">
                    <tspan x="45.42033" y="76.3615023">ADIDAS </tspan>
                    <tspan x="33.0406158" y="102.361502">ORIGINAL</tspan>
                </text>
                <text id="#BACK-TO-THE-ROOTS">
                    <tspan x="6.92621422" y="131.723005">#BACK TO THE </tspan>
                    <tspan x="49.0122142" y="157.723005">ROOTS</tspan>
                </text>
            </g>
            <path d="M740.791711,130.056439 L740.791711,312.83558" id="Line" stroke="#979797" stroke-linecap="square"></path>
        </g>
    </g>
</svg>