<?xml version="1.0" encoding="UTF-8"?>
<svg width="1191px" height="536px" viewBox="0 0 1191 536" version="1.1" xmlns="http://www.w3.org/2000/svg" xmlns:xlink="http://www.w3.org/1999/xlink">
    <!-- Generator: Sketch 49.3 (51167) - http://www.bohemiancoding.com/sketch -->
    <title>solar glide st shoes</title>
    <desc>Created with Sketch.</desc>
    <defs>
        <polygon id="path-1" points="0 0 24 0 24 24 0 24"></polygon>
    </defs>
    <g id="Page-1" stroke="none" stroke-width="1" fill="none" fill-rule="evenodd">
        <g id="Desktop-HD" transform="translate(-125.000000, -244.000000)">
            <g id="solar-glide-st-shoes" transform="translate(125.000000, 244.000000)">
                <g id="Group-2" transform="translate(68.000000, 138.000000)">
                    <g id="baseline-star-24px">
                        <polygon id="Shape" points="0 0 24 0 24 24 0 24"></polygon>
                        <polygon id="Shape" fill="#000000" fill-rule="nonzero" points="12 17.27 18.18 21 16.54 13.97 22 9.24 14.81 8.63 12 2 9.19 8.63 2 9.24 7.46 13.97 5.82 21"></polygon>
                        <polygon id="Shape" points="0 0 24 0 24 24 0 24"></polygon>
                    </g>
                    <g id="baseline-star-24px" transform="translate(25.000000, 0.000000)">
                        <polygon id="Shape" points="0 0 24 0 24 24 0 24"></polygon>
                        <polygon id="Shape" fill="#000000" fill-rule="nonzero" points="12 17.27 18.18 21 16.54 13.97 22 9.24 14.81 8.63 12 2 9.19 8.63 2 9.24 7.46 13.97 5.82 21"></polygon>
                        <polygon id="Shape" points="0 0 24 0 24 24 0 24"></polygon>
                    </g>
                    <g id="baseline-star-24px" transform="translate(49.000000, 0.000000)">
                        <polygon id="Shape" points="0 0 24 0 24 24 0 24"></polygon>
                        <polygon id="Shape" fill="#000000" fill-rule="nonzero" points="12 17.27 18.18 21 16.54 13.97 22 9.24 14.81 8.63 12 2 9.19 8.63 2 9.24 7.46 13.97 5.82 21"></polygon>
                        <polygon id="Shape" points="0 0 24 0 24 24 0 24"></polygon>
                    </g>
                    <g id="baseline-star-24px" transform="translate(74.000000, 0.000000)">
                        <polygon id="Shape" points="0 0 24 0 24 24 0 24"></polygon>
                        <polygon id="Shape" fill="#000000" fill-rule="nonzero" points="12 17.27 18.18 21 16.54 13.97 22 9.24 14.81 8.63 12 2 9.19 8.63 2 9.24 7.46 13.97 5.82 21"></polygon>
                        <polygon id="Shape" points="0 0 24 0 24 24 0 24"></polygon>
                    </g>
                    <g id="baseline-star_half-24px" transform="translate(98.000000, 0.000000)">
                        <mask id="mask-2" fill="white">
                            <use xlink:href="#path-1"></use>
                        </mask>
                        <g id="a"></g>
                        <path d="M22,9.24 L14.81,8.62 L12,2 L9.19,8.63 L2,9.24 L7.46,13.97 L5.82,21 L12,17.27 L18.18,21 L16.55,13.97 L22,9.24 Z M13.71,15.6959539 L13.71,10.14 L18.09,10.52 L14.77,13.4 L15.77,17.68 L13.71,15.6959539 Z" id="Shape" fill="#000000" fill-rule="nonzero" mask="url(#mask-2)"></path>
                    </g>
                </g>
                <text id="4.7-from-5-reviews" font-family="Raleway-Regular, Raleway" font-size="20" font-weight="normal" letter-spacing="0.274285674" fill="#4A4A4A">
                    <tspan x="223.251429" y="157">4.7 from 5 reviews</tspan>
                </text>
                <rect id="Rectangle" stroke="#979797" x="0.5" y="0.5" width="1190" height="535"></rect>
                <text id="•-Lightweight-traine" font-family="Raleway-Regular, Raleway" font-size="35" font-weight="normal" letter-spacing="0.48" fill="#4A4A4A">
                    <tspan x="45" y="230">	•	Lightweight trainers</tspan>
                    <tspan x="45" y="271">	•	Zoned cushioning	</tspan>
                    <tspan x="45" y="312"> </tspan>
                    <tspan x="53.925" y="312">• 	Flexible upper construction</tspan>
                    <tspan x="45" y="353">	•	Made from Parley Ocean Plastic™</tspan>
                </text>
                <text id="DEERUPT-RUNNER-PARLE" font-family="Raleway-Bold, Raleway" font-size="40" font-weight="bold" letter-spacing="0.548571527" fill="#4A4A4A">
                    <tspan x="68" y="81">DEERUPT RUNNER PARLEY SHOES</tspan>
                </text>
                <text id="BLUE/CORE-BLACK/BLUE" font-family="Raleway-Regular, Raleway" font-size="35" font-weight="normal" letter-spacing="0.48">
                    <tspan x="68" y="125" fill="#4A4A4A">BLUE/</tspan>
                    <tspan x="180.685" y="125" fill="#9B9B9B" fill-opacity="0.8">CORE BLACK/BLUE SPIRIT</tspan>
                </text>
                <text id="£99.95" font-family="Raleway-Regular, Raleway" font-size="35" font-weight="normal" letter-spacing="0.48" fill="#4A4A4A">
                    <tspan x="1029" y="63">£99.95</tspan>
                </text>
                <g id="Group" transform="translate(925.000000, 197.000000)" fill="#4A4A4A" font-family="Raleway-Bold, Raleway" font-size="25" font-weight="bold" letter-spacing="0.342857122">
                    <text id="PARLEY">
                        <tspan x="53.4714286" y="24">PARLEY</tspan>
                    </text>
                    <text id="SUPERLIGHT">
                        <tspan x="17.1482144" y="82.5">SUPERLIGHT</tspan>
                    </text>
                    <text id="ECO-FRIENDLY">
                        <tspan x="9.85535727" y="141">ECO-FRIENDLY</tspan>
                    </text>
                </g>
                <path d="M880.5,197.5 L880.5,475.5" id="Line" stroke="#979797" stroke-linecap="square"></path>
            </g>
        </g>
    </g>
</svg>