<?xml version="1.0" encoding="UTF-8"?>
<svg width="1191px" height="536px" viewBox="0 0 1191 536" version="1.1" xmlns="http://www.w3.org/2000/svg" xmlns:xlink="http://www.w3.org/1999/xlink">
    <!-- Generator: Sketch 49.3 (51167) - http://www.bohemiancoding.com/sketch -->
    <title>solarboost</title>
    <desc>Created with Sketch.</desc>
    <defs>
        <polygon id="path-1" points="0 0 24 0 24 24 0 24"></polygon>
    </defs>
    <g id="Page-1" stroke="none" stroke-width="1" fill="none" fill-rule="evenodd">
        <g id="Desktop-HD" transform="translate(-125.000000, -244.000000)">
            <g id="solarboost" transform="translate(125.000000, 244.000000)">
                <rect id="Rectangle" stroke="#979797" x="0.5" y="0.5" width="1190" height="535"></rect>
                <text id="•-Neutral-shoes-for" font-family="Raleway-Regular, Raleway" font-size="35" font-weight="normal" letter-spacing="0.48" fill="#4A4A4A">
                    <tspan x="45" y="230">	• 	Neutral shoes for the </tspan>
                    <tspan x="438.095" y="230" font-family="Raleway-Bold, Raleway" font-weight="bold">long distance</tspan>
                    <tspan x="672.465" y="230"> runner</tspan>
                    <tspan x="45" y="271">	• 	Responsive cushioning </tspan>
                    <tspan x="45" y="312">	• 	Targeted support at the </tspan>
                    <tspan x="480.985" y="312" font-family="Raleway-Bold, Raleway" font-weight="bold">midfoot</tspan>
                    <tspan x="616.085" y="312"></tspan>
                    <tspan x="45" y="353">	• 	Natural fit that allows optimal movement of </tspan>
                    <tspan x="81" y="394">the Achilles</tspan>
                    <tspan x="45" y="435">	• 	Heel to toe stability</tspan>
                </text>
                <text id="SOLARBOOST-SHOES" font-family="Raleway-Bold, Raleway" font-size="40" font-weight="bold" letter-spacing="0.548571527" fill="#4A4A4A">
                    <tspan x="68" y="81">SOLARBOOST SHOES</tspan>
                </text>
                <text id="CORE-BLACK-/-GREY-TW" font-family="Raleway-Regular, Raleway" font-size="35" font-weight="normal" letter-spacing="0.48">
                    <tspan x="68" y="125" fill="#4A4A4A">CORE BLACK / </tspan>
                    <tspan x="328.935" y="125" fill="#9B9B9B" fill-opacity="0.8">GREY TWO / HI-RES AQUA</tspan>
                </text>
                <text id="£139.95" font-family="Raleway-Regular, Raleway" font-size="35" font-weight="normal" letter-spacing="0.48" fill="#4A4A4A">
                    <tspan x="1029" y="63">£139.95</tspan>
                </text>
                <g id="Group-4" transform="translate(930.000000, 197.000000)" fill="#4A4A4A" font-family="Raleway-Bold, Raleway" font-size="25" font-weight="bold" letter-spacing="0.342857122">
                    <text id="WATERPROOF">
                        <tspan x="14.1232144" y="24">WATERPROOF</tspan>
                    </text>
                    <text id="BOOST-TECHNOLOGY">
                        <tspan x="53.2553572" y="84">BOOST </tspan>
                        <tspan x="9.72321439" y="114">TECHNOLOGY</tspan>
                    </text>
                    <text id="SUSTAINABLE-MATERIAL">
                        <tspan x="14.8892858" y="174">SUSTAINABLE </tspan>
                        <tspan x="38.9535715" y="204">MATERIAL</tspan>
                    </text>
                </g>
                <path d="M880.5,197.5 L880.5,475.5" id="Line" stroke="#979797" stroke-linecap="square"></path>
                <g id="Group-3" transform="translate(68.000000, 133.000000)">
                    <g id="Group-2">
                        <g id="baseline-star-24px">
                            <polygon id="Shape" points="0 0 24 0 24 24 0 24"></polygon>
                            <polygon id="Shape" fill="#000000" fill-rule="nonzero" points="12 17.27 18.18 21 16.54 13.97 22 9.24 14.81 8.63 12 2 9.19 8.63 2 9.24 7.46 13.97 5.82 21"></polygon>
                            <polygon id="Shape" points="0 0 24 0 24 24 0 24"></polygon>
                        </g>
                        <g id="baseline-star-24px" transform="translate(25.000000, 0.000000)">
                            <polygon id="Shape" points="0 0 24 0 24 24 0 24"></polygon>
                            <polygon id="Shape" fill="#000000" fill-rule="nonzero" points="12 17.27 18.18 21 16.54 13.97 22 9.24 14.81 8.63 12 2 9.19 8.63 2 9.24 7.46 13.97 5.82 21"></polygon>
                            <polygon id="Shape" points="0 0 24 0 24 24 0 24"></polygon>
                        </g>
                        <g id="baseline-star-24px" transform="translate(49.000000, 0.000000)">
                            <polygon id="Shape" points="0 0 24 0 24 24 0 24"></polygon>
                            <polygon id="Shape" fill="#000000" fill-rule="nonzero" points="12 17.27 18.18 21 16.54 13.97 22 9.24 14.81 8.63 12 2 9.19 8.63 2 9.24 7.46 13.97 5.82 21"></polygon>
                            <polygon id="Shape" points="0 0 24 0 24 24 0 24"></polygon>
                        </g>
                        <g id="baseline-star-24px" transform="translate(74.000000, 0.000000)">
                            <polygon id="Shape" points="0 0 24 0 24 24 0 24"></polygon>
                            <polygon id="Shape" fill="#000000" fill-rule="nonzero" points="12 17.27 18.18 21 16.54 13.97 22 9.24 14.81 8.63 12 2 9.19 8.63 2 9.24 7.46 13.97 5.82 21"></polygon>
                            <polygon id="Shape" points="0 0 24 0 24 24 0 24"></polygon>
                        </g>
                        <g id="baseline-star_half-24px" transform="translate(98.000000, 0.000000)">
                            <mask id="mask-2" fill="white">
                                <use xlink:href="#path-1"></use>
                            </mask>
                            <g id="a"></g>
                            <path d="M22,9.24 L14.81,8.62 L12,2 L9.19,8.63 L2,9.24 L7.46,13.97 L5.82,21 L12,17.27 L18.18,21 L16.55,13.97 L22,9.24 Z M13.71,15.6959539 L13.71,10.14 L18.09,10.52 L14.77,13.4 L15.77,17.68 L13.71,15.6959539 Z" id="Shape" fill="#000000" fill-rule="nonzero" mask="url(#mask-2)"></path>
                        </g>
                    </g>
                    <text id="4.6-from-50-reviews" font-family="Raleway-Regular, Raleway" font-size="20" font-weight="normal" letter-spacing="0.274285674" fill="#4A4A4A">
                        <tspan x="148.014286" y="19">4.6 from 50 reviews</tspan>
                    </text>
                </g>
            </g>
        </g>
    </g>
</svg>