<?xml version="1.0" encoding="UTF-8"?>
<svg width="1191px" height="536px" viewBox="0 0 1191 536" version="1.1" xmlns="http://www.w3.org/2000/svg" xmlns:xlink="http://www.w3.org/1999/xlink">
    <!-- Generator: Sketch 49.3 (51167) - http://www.bohemiancoding.com/sketch -->
    <title>deerupt runner parley shoes</title>
    <desc>Created with Sketch.</desc>
    <defs>
        <polygon id="path-1" points="0 0 24 0 24 24 0 24"></polygon>
    </defs>
    <g id="Page-1" stroke="none" stroke-width="1" fill="none" fill-rule="evenodd">
        <g id="Desktop-HD" transform="translate(-125.000000, -244.000000)">
            <g id="deerupt-runner-parley-shoes" transform="translate(125.000000, 244.000000)">
                <g id="Group-2" transform="translate(68.000000, 138.000000)">
                    <g id="baseline-star-24px">
                        <polygon id="Shape" points="0 0 24 0 24 24 0 24"></polygon>
                        <polygon id="Shape" fill="#000000" fill-rule="nonzero" points="12 17.27 18.18 21 16.54 13.97 22 9.24 14.81 8.63 12 2 9.19 8.63 2 9.24 7.46 13.97 5.82 21"></polygon>
                        <polygon id="Shape" points="0 0 24 0 24 24 0 24"></polygon>
                    </g>
                    <g id="baseline-star-24px" transform="translate(25.000000, 0.000000)">
                        <polygon id="Shape" points="0 0 24 0 24 24 0 24"></polygon>
                        <polygon id="Shape" fill="#000000" fill-rule="nonzero" points="12 17.27 18.18 21 16.54 13.97 22 9.24 14.81 8.63 12 2 9.19 8.63 2 9.24 7.46 13.97 5.82 21"></polygon>
                        <polygon id="Shape" points="0 0 24 0 24 24 0 24"></polygon>
                    </g>
                    <g id="baseline-star-24px" transform="translate(49.000000, 0.000000)">
                        <polygon id="Shape" points="0 0 24 0 24 24 0 24"></polygon>
                        <polygon id="Shape" fill="#000000" fill-rule="nonzero" points="12 17.27 18.18 21 16.54 13.97 22 9.24 14.81 8.63 12 2 9.19 8.63 2 9.24 7.46 13.97 5.82 21"></polygon>
                        <polygon id="Shape" points="0 0 24 0 24 24 0 24"></polygon>
                    </g>
                    <g id="baseline-star-24px" transform="translate(74.000000, 0.000000)">
                        <polygon id="Shape" points="0 0 24 0 24 24 0 24"></polygon>
                        <polygon id="Shape" fill="#000000" fill-rule="nonzero" points="12 17.27 18.18 21 16.54 13.97 22 9.24 14.81 8.63 12 2 9.19 8.63 2 9.24 7.46 13.97 5.82 21"></polygon>
                        <polygon id="Shape" points="0 0 24 0 24 24 0 24"></polygon>
                    </g>
                    <g id="baseline-star_half-24px" transform="translate(98.000000, 0.000000)">
                        <mask id="mask-2" fill="white">
                            <use xlink:href="#path-1"></use>
                        </mask>
                        <g id="a"></g>
                        <path d="M22,9.24 L14.81,8.62 L12,2 L9.19,8.63 L2,9.24 L7.46,13.97 L5.82,21 L12,17.27 L18.18,21 L16.55,13.97 L22,9.24 Z M12.0645435,15.6617834 L12.0645435,6.79934102 L14.0255793,10.0145545 L18.09,10.52 L14.77,13.4 L15.77,17.68 L12.0645435,15.6617834 Z" id="Shape" fill="#000000" fill-rule="nonzero" mask="url(#mask-2)"></path>
                    </g>
                </g>
                <text id="4.5-from-2-reviews" font-family="Raleway-Regular, Raleway" font-size="20" font-weight="normal" letter-spacing="0.274285674" fill="#4A4A4A">
                    <tspan x="223.091429" y="157">4.5 from 2 reviews</tspan>
                </text>
                <rect id="Rectangle" stroke="#979797" x="0.5" y="0.5" width="1190" height="535"></rect>
                <text id="•-Road-running-shoe" font-family="Raleway-Regular, Raleway" font-size="35" font-weight="normal" letter-spacing="0.48">
                    <tspan x="45" y="230" fill="#4A4A4A">	•	Road running shoe for long distance running</tspan>
                    <tspan x="45" y="271" fill="#4A4A4A">	•	Energised stability for a responsive ride</tspan>
                    <tspan x="45" y="312" fill="#000000">	•	</tspan>
                    <tspan x="81" y="312" fill="#4A4A4A">Solar Propulsion Rail for additional support</tspan>
                    <tspan x="45" y="353" fill="#4A4A4A">	•	Stretchweb outsole for reliable traction</tspan>
                </text>
                <text id="SOLAR-GLIDE-ST-SHOES" font-family="Raleway-Bold, Raleway" font-size="40" font-weight="bold" letter-spacing="0.548571527" fill="#4A4A4A">
                    <tspan x="68" y="81">SOLAR GLIDE ST SHOES</tspan>
                </text>
                <text id="RAW-STEEL-/-HI-RES-A" font-family="Raleway-Regular, Raleway" font-size="35" font-weight="normal" letter-spacing="0.48">
                    <tspan x="68" y="125" fill="#4A4A4A">RAW STEEL / </tspan>
                    <tspan x="305.6" y="125" fill="#9B9B9B" fill-opacity="0.8">HI-RES AQUA</tspan>
                </text>
                <text id="£119.95" font-family="Raleway-Regular, Raleway" font-size="35" font-weight="normal" letter-spacing="0.48" fill="#4A4A4A">
                    <tspan x="1029" y="63">£119.95</tspan>
                </text>
                <g id="Group-5" transform="translate(937.000000, 197.000000)" fill="#4A4A4A" font-family="Raleway-Bold, Raleway" font-size="25" font-weight="bold" letter-spacing="0.342857122">
                    <text id="CONTINENTAL™-RUBBER">
                        <tspan x="9.59285727" y="24">CONTINENTAL™ </tspan>
                        <tspan x="21.1767858" y="54">RUBBER SOLE</tspan>
                    </text>
                    <text id="DESIGNED-FOR-STABILI">
                        <tspan x="4.13035727" y="108.5">DESIGNED FOR </tspan>
                        <tspan x="33.1571429" y="138.5">STABILITY</tspan>
                    </text>
                    <text id="SOLAR-FITWING-TONGUE">
                        <tspan x="6.3214287" y="193">SOLAR FITWING </tspan>
                        <tspan x="53.2089286" y="223">TONGUE</tspan>
                    </text>
                </g>
                <path d="M880.5,197.5 L880.5,475.5" id="Line" stroke="#979797" stroke-linecap="square"></path>
            </g>
        </g>
    </g>
</svg>